<?xml version="1.0" encoding="utf-8"?>
<!-- Generator: Adobe Illustrator 22.0.1, SVG Export Plug-In . SVG Version: 6.00 Build 0)  -->
<svg version="1.1" id="레이어_1" xmlns="http://www.w3.org/2000/svg" xmlns:xlink="http://www.w3.org/1999/xlink" x="0px"
	 y="0px" viewBox="0 0 62 62" style="enable-background:new 0 0 62 62;" xml:space="preserve">
<style type="text/css">
	.st0{opacity:0.3;fill:none;stroke:url(#SVGID_1_);stroke-miterlimit:10;enable-background:new    ;}
	.st1{fill:none;stroke:#9999FF;stroke-width:2;stroke-miterlimit:10;}
	.st2{fill:none;stroke:#9999FF;stroke-width:2;stroke-linecap:round;stroke-miterlimit:10;}
</style>
<linearGradient id="SVGID_1_" gradientUnits="userSpaceOnUse" x1="4.5819" y1="591.7475" x2="57.4181" y2="622.2525" gradientTransform="matrix(1 0 0 1 0 -576)">
	<stop  offset="0" style="stop-color:#464679"/>
	<stop  offset="1" style="stop-color:#000033"/>
</linearGradient>
<circle class="st0" cx="31" cy="31" r="30"/>
<g>
	<path class="st1" d="M40,18.5v12.7c0,4.5-3.2,8.5-7.7,9.2C26.8,41.2,22,36.9,22,31.5V18.8c0-4.5,3.2-8.5,7.7-9.2
		C35.2,8.8,40,13.1,40,18.5z"/>
	<path class="st2" d="M45,31.5c0,7.7-6.3,14-14,14s-14-6.3-14-14"/>
	<line class="st2" x1="31" y1="45.5" x2="31" y2="52.5"/>
	<line class="st2" x1="23" y1="52.5" x2="39" y2="52.5"/>
</g>
<circle class="st1" cx="31" cy="31" r="30"/>
</svg>
